<?xml version="1.0" encoding="UTF-8"?>
<!-- Generator: visioncortex VTracer 0.6.3 -->
<svg version="1.1" xmlns="http://www.w3.org/2000/svg" width="1280" height="1280">
<path d="M0 0 C422.4 0 844.8 0 1280 0 C1280 422.4 1280 844.8 1280 1280 C857.6 1280 435.2 1280 0 1280 C0 857.6 0 435.2 0 0 Z " fill="#EFF6FD" transform="translate(0,0)"/>
<path d="M0 0 C0.82 -0.02 1.64 -0.04 2.48 -0.06 C7.89 0 11.16 0.75 15.31 4.5 C20.54 10.69 21.05 16.26 21.02 24.15 C21.03 25.36 21.05 26.57 21.07 27.81 C21.1 31.26 21.12 34.72 21.12 38.18 C21.13 41.3 21.15 44.42 21.18 47.55 C21.29 60.2 21.3 72.85 21.31 85.5 C21.31 86.64 21.31 87.78 21.32 88.96 C21.33 112.14 21.33 135.33 21.3 158.52 C21.25 216.61 21.43 274.7 21.7 332.79 C21.74 341.13 21.78 349.47 21.81 357.8 C21.85 368.02 21.9 378.23 21.95 388.45 C21.98 393.73 22 399.01 22.02 404.29 C22.04 409.16 22.07 414.03 22.09 418.9 C22.1 420.68 22.11 422.46 22.12 424.24 C22.12 426.65 22.14 429.05 22.15 431.46 C22.16 432.17 22.16 432.87 22.16 433.6 C21.91 436.83 21.91 436.83 23.31 439.5 C25.94 439.6 28.54 439.63 31.16 439.62 C32 439.62 32.84 439.62 33.7 439.63 C36.54 439.63 39.38 439.62 42.22 439.62 C44.26 439.62 46.3 439.62 48.34 439.62 C52.8 439.62 57.26 439.62 61.72 439.62 C68.97 439.61 76.22 439.61 83.47 439.61 C91.28 439.61 99.08 439.61 106.89 439.61 C107.9 439.61 107.9 439.61 108.92 439.61 C109.93 439.61 109.93 439.61 110.96 439.61 C128.26 439.6 145.56 439.61 162.86 439.62 C165.69 439.63 168.51 439.63 171.33 439.63 C176.34 439.63 181.34 439.64 186.34 439.64 C202.53 439.65 218.72 439.66 234.92 439.67 C235.66 439.67 236.4 439.67 237.16 439.67 C261.16 439.69 285.16 439.68 309.16 439.67 C333.83 439.66 358.49 439.67 383.16 439.7 C386.64 439.71 390.12 439.71 393.61 439.72 C394.29 439.72 394.98 439.72 395.68 439.72 C406.72 439.73 417.76 439.72 428.8 439.71 C439.89 439.69 450.98 439.7 462.08 439.72 C468.09 439.74 474.1 439.74 480.11 439.72 C485.61 439.7 491.12 439.71 496.62 439.74 C498.61 439.74 500.6 439.74 502.59 439.72 C505.3 439.7 508 439.72 510.71 439.75 C511.48 439.73 512.26 439.72 513.06 439.71 C518.36 439.81 521.06 441.33 524.9 444.95 C529.99 450.52 529.8 456.34 529.75 463.5 C529.77 464.47 529.79 465.44 529.81 466.45 C529.81 473.34 528.66 476.91 523.87 482.05 C519.13 486.6 515.67 487.36 509.21 487.25 C507.87 487.26 507.87 487.26 506.49 487.28 C503.48 487.3 500.46 487.28 497.45 487.26 C495.27 487.26 493.09 487.27 490.9 487.28 C484.91 487.3 478.91 487.29 472.91 487.27 C466.44 487.25 459.97 487.27 453.51 487.29 C441.57 487.31 429.63 487.3 417.69 487.28 C406.66 487.27 395.63 487.26 384.59 487.26 C383.5 487.26 383.5 487.26 382.38 487.26 C379.41 487.27 376.44 487.27 373.47 487.27 C345.61 487.28 317.74 487.26 289.88 487.22 C265.13 487.19 240.37 487.19 215.62 487.21 C209.28 487.21 202.95 487.22 196.61 487.22 C195.83 487.22 195.05 487.22 194.24 487.22 C173.56 487.24 152.88 487.23 132.19 487.21 C129.97 487.21 127.74 487.21 125.52 487.21 C124.04 487.21 122.56 487.21 121.09 487.21 C110.06 487.2 99.04 487.2 88.02 487.21 C75.48 487.22 62.95 487.22 50.41 487.18 C44.02 487.17 37.62 487.16 31.22 487.18 C25.37 487.19 19.51 487.18 13.66 487.15 C11.54 487.14 9.42 487.15 7.3 487.16 C4.42 487.17 1.54 487.16 -1.34 487.13 C-2.16 487.14 -2.98 487.15 -3.83 487.17 C-10.04 487.06 -14.78 485.36 -19.69 481.5 C-23.62 477.09 -24.27 472.19 -24.19 466.46 C-24.2 465.68 -24.21 464.9 -24.21 464.09 C-24.23 461.47 -24.21 458.84 -24.2 456.22 C-24.21 454.32 -24.21 452.42 -24.22 450.51 C-24.24 445.29 -24.24 440.07 -24.23 434.85 C-24.22 429.21 -24.23 423.58 -24.25 417.95 C-24.27 406.91 -24.27 395.87 -24.26 384.84 C-24.25 375.87 -24.26 366.9 -24.26 357.93 C-24.26 356.65 -24.26 355.38 -24.26 354.06 C-24.27 351.47 -24.27 348.88 -24.27 346.29 C-24.28 328.88 -24.29 311.48 -24.28 294.07 C-24.27 293.05 -24.27 293.05 -24.27 292.01 C-24.27 286.48 -24.27 280.95 -24.26 275.43 C-24.25 253.87 -24.26 232.31 -24.28 210.75 C-24.32 186.53 -24.33 162.31 -24.32 138.09 C-24.32 135.5 -24.32 132.92 -24.32 130.34 C-24.32 129.07 -24.32 127.8 -24.32 126.49 C-24.31 117.53 -24.32 108.57 -24.34 99.61 C-24.36 88.7 -24.36 77.78 -24.33 66.86 C-24.32 61.29 -24.32 55.72 -24.34 50.15 C-24.35 45.05 -24.35 39.95 -24.32 34.85 C-24.32 33 -24.32 31.16 -24.33 29.32 C-24.45 10.84 -24.45 10.84 -18.69 4.5 C-13.11 0.1 -6.84 0.12 0 0 Z " fill="#052F43" transform="translate(393.6875,364.5)"/>
<path d="M0 0 C5.3 3.18 8.91 6.59 12 12 C12.37 12.64 12.74 13.28 13.12 13.93 C14.1 15.61 15.05 17.31 16 19 C20.77 15.85 25.49 12.66 30.12 9.31 C33.98 6.61 37.53 4.49 42 3 C42.99 3.5 42.99 3.5 44 4 C44.02 20.26 44.04 36.53 44.05 52.79 C44.06 60.34 44.06 67.89 44.08 75.44 C44.09 82.02 44.09 88.6 44.09 95.18 C44.1 98.67 44.1 102.15 44.11 105.64 C44.11 109.53 44.11 113.41 44.11 117.3 C44.12 118.46 44.12 119.62 44.12 120.82 C44.12 121.87 44.12 122.93 44.12 124.01 C44.12 124.93 44.12 125.85 44.12 126.8 C44 129 44 129 43 131 C42.79 136.61 42.79 136.61 44 142 C43.67 142.66 43.34 143.32 43 144 C42.9 146.2 42.87 148.4 42.87 150.6 C42.87 151.29 42.87 151.98 42.87 152.68 C42.86 155 42.87 157.31 42.87 159.62 C42.87 161.27 42.87 162.92 42.87 164.57 C42.86 169.07 42.86 173.57 42.87 178.06 C42.87 182.76 42.87 187.45 42.86 192.15 C42.86 200.04 42.86 207.93 42.87 215.82 C42.88 224.95 42.87 234.08 42.87 243.21 C42.86 251.04 42.86 258.87 42.87 266.7 C42.87 271.38 42.87 276.06 42.86 280.74 C42.86 285.14 42.86 289.54 42.87 293.93 C42.87 295.55 42.87 297.17 42.87 298.79 C42.86 300.99 42.87 303.19 42.87 305.4 C42.87 306.63 42.87 307.86 42.87 309.14 C42.8 311.94 42.8 311.94 44 314 C44.08 315.45 44.11 316.9 44.1 318.35 C44.09 319.63 44.09 319.63 44.09 320.93 C44.08 322.26 44.08 322.26 44.06 323.62 C44.06 324.52 44.05 325.42 44.05 326.34 C44.04 328.56 44.02 330.78 44 333 C40.63 334.68 36.83 334.16 33.12 334.17 C31.8 334.17 31.8 334.17 30.46 334.18 C28.59 334.18 26.73 334.19 24.87 334.19 C22.01 334.19 19.15 334.21 16.3 334.22 C14.49 334.23 12.68 334.23 10.88 334.23 C10.02 334.24 9.16 334.24 8.27 334.25 C2.23 334.23 2.23 334.23 0 332 C-0.25 329.96 -0.25 329.96 -0.26 327.4 C-0.27 326.42 -0.28 325.44 -0.28 324.44 C-0.28 323.36 -0.28 322.28 -0.28 321.17 C-0.28 320.03 -0.29 318.89 -0.3 317.71 C-0.31 314.53 -0.32 311.36 -0.32 308.18 C-0.32 304.76 -0.34 301.34 -0.35 297.91 C-0.37 291.98 -0.39 286.05 -0.4 280.12 C-0.41 271.54 -0.44 262.97 -0.46 254.39 C-0.51 240.48 -0.55 226.56 -0.58 212.65 C-0.61 199.13 -0.64 185.61 -0.68 172.09 C-0.69 171.26 -0.69 170.43 -0.69 169.57 C-0.7 165.39 -0.71 161.21 -0.73 157.03 C-0.83 122.36 -0.92 87.68 -1 53 C-2.1 53.16 -3.19 53.32 -4.32 53.48 C-15.06 55 -22.81 54.2 -32 48 C-38.23 42.51 -41.68 35.61 -42.25 27.38 C-42.13 19.07 -39.18 11.56 -33.57 5.45 C-24.19 -3.55 -11.65 -5.43 0 0 Z " fill="#0B5571" transform="translate(764,446)"/>
<path d="M0 0 C2.35 3.53 3.04 6.88 3.92 10.95 C4.1 11.75 4.27 12.55 4.46 13.37 C5.04 16 5.61 18.62 6.19 21.25 C6.59 23.08 7 24.91 7.4 26.74 C8.22 30.43 9.04 34.12 9.85 37.81 C11.39 44.8 12.98 51.77 14.56 58.75 C17.24 70.59 19.88 82.44 22.51 94.3 C24.84 104.79 27.19 115.27 29.56 125.75 C33.6 143.58 37.49 161.43 41.37 179.29 C42.91 186.4 44.45 193.52 46 200.62 C46.26 201.83 46.53 203.04 46.8 204.29 C49.91 218.61 53.09 232.9 56.48 247.16 C60.06 262.31 63.23 277.54 66.45 292.76 C67.52 297.77 68.6 302.76 69.72 307.76 C69.96 308.85 70.2 309.94 70.45 311.06 C70.89 313 71.33 314.94 71.77 316.87 C72.22 318.9 72.62 320.95 73 323 C71.33 324.67 69.3 324.13 67.07 324.15 C66.37 324.15 65.67 324.15 64.94 324.15 C63.83 324.15 63.83 324.15 62.7 324.16 C60.25 324.16 57.8 324.17 55.35 324.17 C53.65 324.17 51.95 324.17 50.25 324.18 C46.69 324.18 43.13 324.19 39.56 324.19 C34.99 324.19 30.41 324.2 25.84 324.22 C22.33 324.23 18.82 324.23 15.32 324.23 C13.63 324.23 11.94 324.23 10.26 324.24 C7.9 324.25 5.54 324.25 3.19 324.24 C2.49 324.25 1.78 324.25 1.06 324.26 C-3.77 324.23 -3.77 324.23 -6 322 C-6.28 319.27 -6.28 319.27 -6.31 315.71 C-6.32 315.05 -6.33 314.4 -6.34 313.72 C-6.37 311.49 -6.39 309.26 -6.41 307.04 C-6.42 305.42 -6.44 303.81 -6.46 302.2 C-6.51 297.73 -6.55 293.27 -6.59 288.8 C-6.61 285.94 -6.64 283.07 -6.66 280.21 C-7.14 231.27 -7.22 182.32 -7.24 133.38 C-7.24 132.09 -7.24 130.81 -7.24 129.48 C-7.24 128.19 -7.24 126.9 -7.24 125.57 C-7.25 115.56 -7.26 105.55 -7.29 95.54 C-7.31 84.42 -7.32 73.29 -7.32 62.16 C-7.32 55.98 -7.33 49.8 -7.35 43.62 C-7.36 37.89 -7.37 32.16 -7.36 26.43 C-7.36 24.33 -7.36 22.24 -7.37 20.14 C-7.38 17.29 -7.38 14.43 -7.37 11.58 C-7.38 10.33 -7.38 10.33 -7.39 9.05 C-7.34 3.47 -7.34 3.47 -5.73 1.27 C-4 0 -4 0 0 0 Z " fill="#053044" transform="translate(840,456)"/>
<path d="M0 0 C0.99 0 1.98 0 3 0 C3 85.47 3 170.94 3 259 C-2.6 259.7 -7.62 260.1 -13.18 259.91 C-13.92 259.89 -14.67 259.87 -15.43 259.85 C-16.98 259.8 -18.53 259.75 -20.07 259.7 C-22.46 259.62 -24.84 259.56 -27.22 259.49 C-28.73 259.45 -30.24 259.4 -31.75 259.35 C-32.46 259.33 -33.17 259.31 -33.91 259.29 C-38.88 259.12 -38.88 259.12 -40 258 C-40.11 255.53 -40.15 253.1 -40.16 250.63 C-40.17 249.46 -40.17 249.46 -40.17 248.26 C-40.19 245.63 -40.2 242.99 -40.21 240.35 C-40.21 238.47 -40.22 236.59 -40.24 234.71 C-40.26 229.58 -40.28 224.46 -40.3 219.33 C-40.33 213.98 -40.35 208.63 -40.38 203.28 C-40.43 193.14 -40.47 183 -40.52 172.86 C-40.57 161.32 -40.62 149.78 -40.68 138.24 C-40.79 114.49 -40.9 90.75 -41 67 C-42.1 67.32 -43.19 67.64 -44.32 67.97 C-53.47 70.52 -60.94 69.51 -69.23 64.91 C-74.76 61.1 -78.81 56.74 -81.5 50.56 C-82.85 40.94 -82.02 33.24 -77.12 24.75 C-72.24 18.42 -67.79 14.98 -60 13 C-51.81 12.01 -44.1 12.55 -37 17 C-31.7 21.6 -27.87 27.63 -25 34 C-25 34.66 -25 35.32 -25 36 C-20.77 32.1 -17.8 27.92 -14.75 23.06 C-14.04 21.95 -14.04 21.95 -13.32 20.82 C-10.98 17.16 -8.67 13.47 -6.39 9.77 C-5.99 9.12 -5.58 8.48 -5.17 7.81 C-4.4 6.58 -3.65 5.35 -2.91 4.12 C-1.88 2.46 -1.88 2.46 0 0 Z " fill="#0B5571" transform="translate(734,520)"/>
<path d="M0 0 C2.88 2.31 2.88 2.31 5 5 C5.44 5.55 5.88 6.1 6.33 6.66 C9.12 10.31 10.64 13.58 12 18 C20.08 13.51 27.9 8.87 35.48 3.57 C38 2 38 2 42 1 C42 58.42 42 115.84 42 175 C37.15 175.81 32.7 176.16 27.83 176.17 C27.06 176.17 26.3 176.17 25.51 176.18 C23.91 176.18 22.31 176.19 20.7 176.19 C18.24 176.19 15.78 176.21 13.32 176.22 C11.76 176.23 10.2 176.23 8.64 176.23 C7.9 176.24 7.17 176.24 6.41 176.25 C1.23 176.23 1.23 176.23 -1 174 C-1.26 171.8 -1.26 171.8 -1.28 169.01 C-1.29 167.96 -1.3 166.9 -1.31 165.82 C-1.31 164.66 -1.32 163.5 -1.32 162.3 C-1.33 161.08 -1.34 159.86 -1.35 158.6 C-1.37 155.25 -1.39 151.91 -1.4 148.56 C-1.42 145.06 -1.45 141.56 -1.47 138.06 C-1.52 131.44 -1.56 124.81 -1.59 118.18 C-1.63 110.64 -1.68 103.1 -1.73 95.55 C-1.83 80.04 -1.92 64.52 -2 49 C-2.54 49.21 -3.08 49.42 -3.64 49.64 C-4.72 50.05 -4.72 50.05 -5.81 50.47 C-6.52 50.74 -7.22 51.02 -7.95 51.3 C-14.36 53.5 -21.19 52.76 -27.25 49.94 C-34.29 45.9 -40.4 41.36 -43.38 33.59 C-45.24 25.87 -44.97 18.09 -41.26 11 C-31.76 -4.04 -15.84 -7.86 0 0 Z " fill="#0B5571" transform="translate(625,604)"/>
<path d="M0 0 C0.99 0 1.98 0 3 0 C3 33.99 3 67.98 3 103 C-10.86 103 -24.72 103 -39 103 C-40 102 -40 102 -40.11 99.59 C-40.11 98.03 -40.11 98.03 -40.1 96.43 C-40.09 94.75 -40.09 94.75 -40.09 93.03 C-40.08 91.25 -40.08 91.25 -40.06 89.44 C-40.06 88.25 -40.05 87.06 -40.05 85.84 C-40.04 82.89 -40.02 79.95 -40 77 C-40.81 77.22 -41.62 77.44 -42.45 77.67 C-43.52 77.95 -44.59 78.23 -45.69 78.52 C-47.27 78.94 -47.27 78.94 -48.89 79.37 C-54.59 80.53 -59.44 79.39 -65 78 C-65 86.25 -65 94.5 -65 103 C-72.88 104.13 -72.88 104.13 -76.09 104.13 C-76.82 104.14 -77.54 104.14 -78.3 104.15 C-79.07 104.15 -79.84 104.15 -80.64 104.15 C-81.89 104.15 -81.89 104.15 -83.17 104.16 C-85.91 104.16 -88.65 104.17 -91.39 104.17 C-93.3 104.17 -95.21 104.17 -97.12 104.18 C-101.12 104.18 -105.11 104.19 -109.11 104.19 C-114.23 104.19 -119.35 104.2 -124.48 104.22 C-128.42 104.23 -132.36 104.23 -136.3 104.23 C-138.19 104.23 -140.08 104.23 -141.97 104.24 C-144.61 104.25 -147.24 104.25 -149.88 104.24 C-151.05 104.25 -151.05 104.25 -152.25 104.26 C-156.04 104.24 -157.76 104.16 -161 102 C-161 101.34 -161 100.68 -161 100 C-160.39 99.72 -159.78 99.44 -159.16 99.15 C-146.03 93.05 -133.25 86.72 -121 79 C-120.35 78.59 -119.7 78.19 -119.03 77.77 C-110.8 72.58 -103.17 66.96 -95.88 60.51 C-93 58 -93 58 -90.59 56.21 C-85.08 52.04 -83.43 47.62 -81.2 41.16 C-78.37 33.71 -74.15 29.33 -67 26 C-66.39 25.7 -65.79 25.4 -65.16 25.1 C-57.88 21.87 -50.28 21.9 -42.81 24.56 C-37.75 26.81 -33.9 30.12 -30 34 C-19.4 29.26 -12.18 17 -5.69 7.72 C-4.99 6.72 -4.29 5.72 -3.56 4.69 C-2.95 3.78 -2.33 2.88 -1.69 1.95 C-1.13 1.31 -0.58 0.66 0 0 Z " fill="#052F43" transform="translate(594,676)"/>
<path d="M0 0 C0.99 0 1.98 0 3 0 C3 33.99 3 67.98 3 103 C-10.86 103 -24.72 103 -39 103 C-40 102 -40 102 -40.11 99.59 C-40.11 98.55 -40.1 97.51 -40.1 96.43 C-40.09 95.31 -40.09 94.18 -40.09 93.03 C-40.08 91.84 -40.07 90.66 -40.06 89.44 C-40.06 88.25 -40.05 87.06 -40.05 85.84 C-40.04 82.89 -40.02 79.95 -40 77 C-40.66 76.67 -41.32 76.34 -42 76 C-40.91 75.59 -39.81 75.17 -38.69 74.75 C-35.44 73.38 -33.95 71.98 -32 69 C-31.34 69 -30.68 69 -30 69 C-29.9 68.32 -29.79 67.64 -29.69 66.94 C-29 64 -29 64 -27.44 60.94 C-24.96 55.36 -25.06 48.63 -26.57 42.78 C-27.83 39.65 -29.37 37.13 -32 35 C-31.44 34.92 -30.87 34.85 -30.29 34.77 C-20.27 31.42 -11.6 16.16 -5.7 7.73 C-4.99 6.72 -4.29 5.72 -3.56 4.69 C-2.95 3.78 -2.33 2.88 -1.69 1.95 C-1.13 1.31 -0.58 0.66 0 0 Z " fill="#0B5571" transform="translate(594,676)"/>
<path d="M0 0 C8.58 5.15 13.33 12.42 16 22 C17.43 31.05 15.35 37.64 10 45 C4.63 51.11 -2.84 53.41 -10.69 54.31 C-19.73 54.71 -27.12 52.31 -33.98 46.25 C-39.5 40.14 -42.34 33.53 -42.22 25.28 C-41.41 16.81 -38.07 9.76 -31.94 3.88 C-22.48 -3.84 -10.93 -5.09 0 0 Z " fill="#052F43" transform="translate(764,446)"/>
<path d="M0 0 C2.5 2.07 4.23 4.29 6 7 C6.49 7.7 6.97 8.39 7.47 9.11 C12.02 16.65 12.05 24.51 11 33 C8.55 41.65 2.77 47.18 -4.8 51.66 C-11.49 54.47 -19.43 54.3 -26.21 51.83 C-28.95 50.37 -31.47 48.79 -34 47 C-34.91 46.43 -34.91 46.43 -35.83 45.84 C-40.65 42.44 -43.28 37.51 -45 32 C-46.38 21.55 -44.5 13.46 -38.88 4.69 C-28.42 -5.09 -12.45 -7.5 0 0 Z " fill="#052F43" transform="translate(838,386)"/>
<path d="M0 0 C7.17 4.5 11.82 12.14 13.97 20.2 C14.05 21.25 14.13 22.31 14.22 23.39 C14.32 24.2 14.41 25.02 14.52 25.86 C15.03 32.84 13.47 36.77 9.14 42.23 C3.38 48.71 -3.02 52.48 -11.67 53.85 C-20.89 54.37 -28.33 51.29 -35.24 45.23 C-41.39 38.76 -43.24 32.79 -43.04 23.95 C-42.14 14.94 -37.74 7.14 -30.78 1.39 C-21.27 -4.08 -9.99 -4.6 0 0 Z " fill="#052F43" transform="translate(694.78125,535.609375)"/>
<path d="M0 0 C2.88 2.31 2.88 2.31 5 5 C5.45 5.56 5.9 6.12 6.37 6.7 C11.17 12.95 11.22 18.75 11.31 26.44 C11.34 27.27 11.37 28.1 11.4 28.96 C11.46 34.52 10.65 37.56 7 42 C6.34 42.85 5.68 43.69 5 44.56 C-1.99 50.25 -10.12 52.91 -19.12 52.48 C-27.3 51.12 -34.58 46.17 -40 40 C-44.65 33.31 -44.96 25.91 -44 18 C-41.96 10.41 -37.27 3.75 -30.5 -0.31 C-19.83 -5.46 -10.67 -5.29 0 0 Z " fill="#052F43" transform="translate(625,604)"/>
<path d="M0 0 C3.88 2.51 4.89 3.78 7 8 C4.36 10.97 1.72 13.94 -1 17 C-5 16 -5 16 -7.56 14.44 C-12.32 12.45 -16.9 12.38 -22 13 C-25.22 14.67 -25.22 14.67 -25.69 17.62 C-25.79 18.41 -25.89 19.19 -26 20 C-25.29 20.28 -24.59 20.56 -23.86 20.85 C-19.91 22.44 -15.98 24.06 -12.07 25.73 C-10.22 26.49 -8.36 27.22 -6.46 27.86 C0.29 30.31 3.63 34.75 7 41 C8.65 46.14 9.2 51.49 6.84 56.45 C4.09 60.71 1.26 64.16 -3 67 C-3.66 67.52 -4.31 68.03 -4.99 68.57 C-9.46 70.7 -13.67 70.57 -18.56 70.56 C-19.55 70.56 -20.53 70.56 -21.54 70.56 C-32.22 70.3 -38.78 66.74 -47 60 C-46.1 55.29 -43.77 51.95 -40 49 C-34.92 48.82 -31.4 50.65 -27 53 C-23.96 53.95 -21.12 54.19 -17.94 54.25 C-17.08 54.28 -16.22 54.3 -15.34 54.33 C-12.94 54.18 -12.94 54.18 -11.18 52.64 C-9.73 51 -9.73 51 -10.19 48.5 C-10.94 45.79 -10.94 45.79 -13 43 C-15.76 41.97 -15.76 41.97 -19 41.19 C-27.59 38.7 -36.14 34.87 -41.22 27.14 C-43.18 21.74 -43.09 14.86 -41.05 9.51 C-37.56 3.68 -33 -0.22 -26.5 -2.46 C-17.71 -4.36 -8.23 -3.67 0 0 Z " fill="#053044" transform="translate(657,874)"/>
<path d="M0 0 C1.17 -0.03 2.33 -0.05 3.53 -0.08 C5 0.08 5 0.08 6.5 0.25 C8.69 3.53 8.76 4.56 8.82 8.36 C8.84 9.4 8.86 10.45 8.88 11.52 C8.89 12.64 8.9 13.76 8.91 14.92 C8.93 16.07 8.95 17.22 8.97 18.4 C9.03 22.08 9.08 25.76 9.12 29.44 C9.16 31.93 9.2 34.42 9.24 36.91 C9.34 43.02 9.42 49.14 9.5 55.25 C10.71 55.23 10.71 55.23 11.95 55.22 C15.59 55.18 19.23 55.15 22.88 55.12 C24.78 55.1 24.78 55.1 26.73 55.07 C28.54 55.06 28.54 55.06 30.4 55.05 C31.52 55.04 32.64 55.03 33.79 55.02 C36.5 55.25 36.5 55.25 38.5 57.25 C38.7 60.51 38.7 60.51 38.62 64.38 C38.61 65.66 38.59 66.94 38.57 68.26 C38.55 69.25 38.52 70.23 38.5 71.25 C31.97 71.28 25.43 71.29 18.9 71.3 C16.68 71.31 14.45 71.32 12.23 71.33 C9.04 71.34 5.85 71.34 2.66 71.35 C1.16 71.36 1.16 71.36 -0.37 71.36 C-1.29 71.36 -2.22 71.36 -3.16 71.36 C-3.98 71.37 -4.79 71.37 -5.63 71.37 C-7.5 71.25 -7.5 71.25 -8.5 70.25 C-8.59 68.1 -8.62 65.95 -8.61 63.8 C-8.61 63.13 -8.61 62.46 -8.61 61.76 C-8.61 59.53 -8.61 57.29 -8.6 55.06 C-8.6 53.51 -8.59 51.97 -8.59 50.42 C-8.59 46.35 -8.58 42.27 -8.57 38.2 C-8.56 34.04 -8.55 29.88 -8.55 25.73 C-8.54 17.57 -8.52 9.41 -8.5 1.25 C-5.66 -0.17 -3.17 0.04 0 0 Z " fill="#053045" transform="translate(713.5,871.75)"/>
<path d="M0 0 C1.59 -0.04 1.59 -0.04 3.21 -0.08 C6.06 0.25 6.06 0.25 7.72 1.37 C9.7 4.14 9.44 6.33 9.43 9.71 C9.44 10.36 9.44 11.01 9.45 11.68 C9.45 13.83 9.44 15.98 9.43 18.13 C9.43 19.62 9.43 21.12 9.43 22.61 C9.43 25.74 9.42 28.86 9.4 31.99 C9.38 36.01 9.38 40.02 9.38 44.03 C9.39 47.12 9.38 50.2 9.37 53.28 C9.37 54.76 9.36 56.24 9.37 57.72 C9.37 59.79 9.35 61.85 9.34 63.92 C9.33 65.1 9.33 66.27 9.32 67.49 C9.06 70.25 9.06 70.25 7.06 72.25 C3.84 72.26 3.84 72.26 0 71.94 C-1.27 71.84 -2.54 71.74 -3.85 71.64 C-6.94 71.25 -6.94 71.25 -7.94 70.25 C-8.03 68.1 -8.05 65.95 -8.05 63.8 C-8.05 63.13 -8.05 62.46 -8.05 61.76 C-8.05 59.53 -8.04 57.29 -8.04 55.06 C-8.03 53.51 -8.03 51.97 -8.03 50.42 C-8.03 46.35 -8.02 42.27 -8.01 38.2 C-8 34.04 -7.99 29.88 -7.99 25.73 C-7.98 17.57 -7.96 9.41 -7.94 1.25 C-5.23 -0.1 -3.02 0.04 0 0 Z " fill="#053146" transform="translate(562.9375,871.75)"/>
<path d="M0 0 C0 56.1 0 112.2 0 170 C-0.99 169.67 -1.98 169.34 -3 169 C-3 113.56 -3 58.12 -3 1 C-1 0 -1 0 0 0 Z " fill="#96B3C1" transform="translate(809,589)"/>
<path d="M0 0 C0 3.3 0 6.6 0 10 C-0.99 9.67 -1.98 9.34 -3 9 C-3 6.36 -3 3.72 -3 1 C-1 0 -1 0 0 0 Z " fill="#96B3C1" transform="translate(809,576)"/>
</svg>
